<svg width="508" height="340" viewBox="0 0 508 340" fill="none" xmlns="http://www.w3.org/2000/svg">
<g filter="url(#filter0_d_7043_9675)">
<rect x="36" y="12" width="432" height="260" rx="12" fill="white" style="fill:white;fill-opacity:1;"/>
<path d="M63.6662 36.8182H65.2074V43.5149C65.2074 44.2275 65.04 44.8589 64.7053 45.4091C64.3705 45.956 63.8999 46.3868 63.2933 46.7017C62.6868 47.0133 61.9759 47.169 61.1605 47.169C60.3485 47.169 59.6392 47.0133 59.0327 46.7017C58.4261 46.3868 57.9555 45.956 57.6207 45.4091C57.286 44.8589 57.1186 44.2275 57.1186 43.5149V36.8182H58.6548V43.3906C58.6548 43.8513 58.7559 44.2607 58.9581 44.6186C59.1636 44.9766 59.4536 45.2583 59.8281 45.4638C60.2027 45.666 60.6468 45.767 61.1605 45.767C61.6776 45.767 62.1233 45.666 62.4979 45.4638C62.8757 45.2583 63.1641 44.9766 63.3629 44.6186C63.5651 44.2607 63.6662 43.8513 63.6662 43.3906V36.8182ZM73.0439 41.228L71.6966 41.4666C71.6402 41.2943 71.5507 41.1302 71.4281 40.9744C71.3088 40.8187 71.1464 40.6911 70.9409 40.5916C70.7354 40.4922 70.4785 40.4425 70.1703 40.4425C69.7493 40.4425 69.398 40.5369 69.1163 40.7259C68.8346 40.9115 68.6937 41.1518 68.6937 41.4467C68.6937 41.7019 68.7882 41.9074 68.9771 42.0632C69.166 42.219 69.4709 42.3466 69.8919 42.446L71.1049 42.7244C71.8076 42.8868 72.3313 43.1371 72.676 43.4751C73.0207 43.8132 73.193 44.2524 73.193 44.7926C73.193 45.25 73.0604 45.6577 72.7953 46.0156C72.5334 46.3703 72.1672 46.6487 71.6966 46.8509C71.2292 47.053 70.6873 47.1541 70.0708 47.1541C69.2157 47.1541 68.5181 46.9718 67.9778 46.6072C67.4376 46.2393 67.1061 45.7173 66.9835 45.0412L68.4203 44.8224C68.5098 45.197 68.6937 45.4804 68.9721 45.6726C69.2505 45.8615 69.6135 45.956 70.0609 45.956C70.5481 45.956 70.9376 45.8549 71.2292 45.6527C71.5209 45.4472 71.6667 45.197 71.6667 44.902C71.6667 44.6634 71.5772 44.4628 71.3983 44.3004C71.2226 44.138 70.9525 44.0154 70.5879 43.9325L69.2953 43.6491C68.5827 43.4867 68.0557 43.2282 67.7143 42.8736C67.3762 42.5189 67.2072 42.0698 67.2072 41.5263C67.2072 41.0755 67.3332 40.6811 67.585 40.343C67.8369 40.005 68.185 39.7415 68.6291 39.5526C69.0732 39.3603 69.582 39.2642 70.1554 39.2642C70.9806 39.2642 71.6303 39.4432 72.1042 39.8011C72.5782 40.1558 72.8914 40.6314 73.0439 41.228ZM78.1186 47.1541C77.3662 47.1541 76.7183 46.9934 76.1747 46.6719C75.6345 46.3471 75.2169 45.8913 74.9219 45.3047C74.6302 44.7147 74.4844 44.0237 74.4844 43.2315C74.4844 42.4493 74.6302 41.7599 74.9219 41.1634C75.2169 40.5668 75.6278 40.1011 76.1548 39.7663C76.6851 39.4316 77.3049 39.2642 78.0142 39.2642C78.4451 39.2642 78.8627 39.3355 79.267 39.478C79.6714 39.6205 80.0343 39.8442 80.3558 40.1491C80.6773 40.4541 80.9309 40.8501 81.1165 41.3374C81.3021 41.8213 81.3949 42.4096 81.3949 43.1023V43.6293H75.3246V42.5156H79.9382C79.9382 42.1245 79.8587 41.7782 79.6996 41.4766C79.5405 41.1716 79.3168 40.9313 79.0284 40.7557C78.7434 40.58 78.4086 40.4922 78.0241 40.4922C77.6065 40.4922 77.242 40.5949 76.9304 40.8004C76.6222 41.0026 76.3835 41.2678 76.2145 41.5959C76.0488 41.9207 75.9659 42.2737 75.9659 42.6548V43.5249C75.9659 44.0353 76.0554 44.4695 76.2344 44.8274C76.4167 45.1854 76.6702 45.4588 76.995 45.6477C77.3198 45.8333 77.6993 45.9261 78.1335 45.9261C78.4152 45.9261 78.6721 45.8864 78.9041 45.8068C79.1361 45.724 79.3366 45.6013 79.5057 45.4389C79.6747 45.2765 79.804 45.076 79.8935 44.8374L81.3004 45.0909C81.1877 45.5052 80.9856 45.8681 80.6939 46.1797C80.4055 46.4879 80.0426 46.7282 79.6051 46.9006C79.1709 47.0696 78.6754 47.1541 78.1186 47.1541ZM83.0442 47V39.3636H84.481V40.5767H84.5605C84.6998 40.1657 84.945 39.8426 85.2963 39.6072C85.651 39.3686 86.052 39.2493 86.4995 39.2493C86.5923 39.2493 86.7016 39.2526 86.8276 39.2592C86.9569 39.2659 87.0579 39.2741 87.1309 39.2841V40.706C87.0712 40.6894 86.9651 40.6712 86.8127 40.6513C86.6602 40.6281 86.5078 40.6165 86.3553 40.6165C86.004 40.6165 85.6908 40.6911 85.4157 40.8402C85.1439 40.986 84.9284 41.1899 84.7694 41.4517C84.6103 41.7102 84.5307 42.0052 84.5307 42.3366V47H83.0442ZM94.1396 41.228L92.7923 41.4666C92.7359 41.2943 92.6464 41.1302 92.5238 40.9744C92.4045 40.8187 92.2421 40.6911 92.0366 40.5916C91.8311 40.4922 91.5742 40.4425 91.266 40.4425C90.8451 40.4425 90.4937 40.5369 90.212 40.7259C89.9303 40.9115 89.7894 41.1518 89.7894 41.4467C89.7894 41.7019 89.8839 41.9074 90.0728 42.0632C90.2617 42.219 90.5666 42.3466 90.9876 42.446L92.2006 42.7244C92.9033 42.8868 93.427 43.1371 93.7717 43.4751C94.1164 43.8132 94.2887 44.2524 94.2887 44.7926C94.2887 45.25 94.1561 45.6577 93.891 46.0156C93.6291 46.3703 93.2629 46.6487 92.7923 46.8509C92.3249 47.053 91.783 47.1541 91.1665 47.1541C90.3114 47.1541 89.6138 46.9718 89.0735 46.6072C88.5333 46.2393 88.2018 45.7173 88.0792 45.0412L89.516 44.8224C89.6055 45.197 89.7894 45.4804 90.0678 45.6726C90.3462 45.8615 90.7092 45.956 91.1566 45.956C91.6438 45.956 92.0333 45.8549 92.3249 45.6527C92.6166 45.4472 92.7624 45.197 92.7624 44.902C92.7624 44.6634 92.6729 44.4628 92.494 44.3004C92.3183 44.138 92.0482 44.0154 91.6836 43.9325L90.391 43.6491C89.6784 43.4867 89.1514 43.2282 88.81 42.8736C88.4719 42.5189 88.3029 42.0698 88.3029 41.5263C88.3029 41.0755 88.4289 40.6811 88.6808 40.343C88.9326 40.005 89.2807 39.7415 89.7248 39.5526C90.1689 39.3603 90.6777 39.2642 91.2511 39.2642C92.0763 39.2642 92.726 39.4432 93.1999 39.8011C93.6739 40.1558 93.9871 40.6314 94.1396 41.228ZM102.845 47.1541C102.129 47.1541 101.504 46.9901 100.971 46.6619C100.437 46.3338 100.023 45.8748 99.7276 45.2848C99.4326 44.6948 99.2852 44.0054 99.2852 43.2166C99.2852 42.4245 99.4326 41.7318 99.7276 41.1385C100.023 40.5452 100.437 40.0845 100.971 39.7564C101.504 39.4283 102.129 39.2642 102.845 39.2642C103.561 39.2642 104.185 39.4283 104.719 39.7564C105.253 40.0845 105.667 40.5452 105.962 41.1385C106.257 41.7318 106.404 42.4245 106.404 43.2166C106.404 44.0054 106.257 44.6948 105.962 45.2848C105.667 45.8748 105.253 46.3338 104.719 46.6619C104.185 46.9901 103.561 47.1541 102.845 47.1541ZM102.85 45.9062C103.314 45.9062 103.698 45.7836 104.003 45.5384C104.308 45.2931 104.533 44.9666 104.679 44.5589C104.828 44.1513 104.903 43.7022 104.903 43.2116C104.903 42.7244 104.828 42.277 104.679 41.8693C104.533 41.4583 104.308 41.1286 104.003 40.88C103.698 40.6314 103.314 40.5071 102.85 40.5071C102.382 40.5071 101.995 40.6314 101.686 40.88C101.382 41.1286 101.154 41.4583 101.005 41.8693C100.859 42.277 100.787 42.7244 100.787 43.2116C100.787 43.7022 100.859 44.1513 101.005 44.5589C101.154 44.9666 101.382 45.2931 101.686 45.5384C101.995 45.7836 102.382 45.9062 102.85 45.9062ZM114.337 39.3636L111.567 47H109.977L107.202 39.3636H108.798L110.732 45.2401H110.812L112.741 39.3636H114.337ZM118.765 47.1541C118.013 47.1541 117.365 46.9934 116.821 46.6719C116.281 46.3471 115.863 45.8913 115.568 45.3047C115.277 44.7147 115.131 44.0237 115.131 43.2315C115.131 42.4493 115.277 41.7599 115.568 41.1634C115.863 40.5668 116.274 40.1011 116.801 39.7663C117.332 39.4316 117.951 39.2642 118.661 39.2642C119.092 39.2642 119.509 39.3355 119.914 39.478C120.318 39.6205 120.681 39.8442 121.002 40.1491C121.324 40.4541 121.577 40.8501 121.763 41.3374C121.949 41.8213 122.041 42.4096 122.041 43.1023V43.6293H115.971V42.5156H120.585C120.585 42.1245 120.505 41.7782 120.346 41.4766C120.187 41.1716 119.963 40.9313 119.675 40.7557C119.39 40.58 119.055 40.4922 118.671 40.4922C118.253 40.4922 117.888 40.5949 117.577 40.8004C117.269 41.0026 117.03 41.2678 116.861 41.5959C116.695 41.9207 116.612 42.2737 116.612 42.6548V43.5249C116.612 44.0353 116.702 44.4695 116.881 44.8274C117.063 45.1854 117.317 45.4588 117.642 45.6477C117.966 45.8333 118.346 45.9261 118.78 45.9261C119.062 45.9261 119.319 45.8864 119.551 45.8068C119.783 45.724 119.983 45.6013 120.152 45.4389C120.321 45.2765 120.45 45.076 120.54 44.8374L121.947 45.0909C121.834 45.5052 121.632 45.8681 121.34 46.1797C121.052 46.4879 120.689 46.7282 120.252 46.9006C119.817 47.0696 119.322 47.1541 118.765 47.1541ZM123.691 47V39.3636H125.127V40.5767H125.207C125.346 40.1657 125.592 39.8426 125.943 39.6072C126.297 39.3686 126.699 39.2493 127.146 39.2493C127.239 39.2493 127.348 39.2526 127.474 39.2592C127.603 39.2659 127.704 39.2741 127.777 39.2841V40.706C127.718 40.6894 127.612 40.6712 127.459 40.6513C127.307 40.6281 127.154 40.6165 127.002 40.6165C126.65 40.6165 126.337 40.6911 126.062 40.8402C125.79 40.986 125.575 41.1899 125.416 41.4517C125.257 41.7102 125.177 42.0052 125.177 42.3366V47H123.691ZM136.333 39.3636V40.5568H132.162V39.3636H136.333ZM133.281 37.5341H134.767V44.7578C134.767 45.0462 134.81 45.2633 134.897 45.4091C134.983 45.5516 135.094 45.6494 135.23 45.7024C135.369 45.7521 135.52 45.777 135.682 45.777C135.801 45.777 135.906 45.7687 135.995 45.7521C136.085 45.7356 136.154 45.7223 136.204 45.7124L136.473 46.9403C136.386 46.9735 136.264 47.0066 136.105 47.0398C135.946 47.0762 135.747 47.0961 135.508 47.0994C135.117 47.1061 134.752 47.0365 134.414 46.8906C134.076 46.7448 133.803 46.5194 133.594 46.2145C133.385 45.9096 133.281 45.5268 133.281 45.0661V37.5341ZM137.978 47V39.3636H139.464V47H137.978ZM138.729 38.1854C138.47 38.1854 138.248 38.0992 138.062 37.9268C137.88 37.7512 137.789 37.5424 137.789 37.3004C137.789 37.0552 137.88 36.8464 138.062 36.674C138.248 36.4983 138.47 36.4105 138.729 36.4105C138.987 36.4105 139.207 36.4983 139.39 36.674C139.575 36.8464 139.668 37.0552 139.668 37.3004C139.668 37.5424 139.575 37.7512 139.39 37.9268C139.207 38.0992 138.987 38.1854 138.729 38.1854ZM141.464 47V39.3636H142.891V40.6065H142.985C143.145 40.1856 143.405 39.8575 143.766 39.6222C144.127 39.3835 144.56 39.2642 145.064 39.2642C145.574 39.2642 146.002 39.3835 146.346 39.6222C146.694 39.8608 146.951 40.1889 147.117 40.6065H147.196C147.379 40.1989 147.669 39.8741 148.066 39.6321C148.464 39.3868 148.938 39.2642 149.488 39.2642C150.181 39.2642 150.746 39.4813 151.184 39.9155C151.624 40.3497 151.845 41.0043 151.845 41.8793V47H150.358V42.0185C150.358 41.5014 150.217 41.1269 149.936 40.8949C149.654 40.6629 149.318 40.5469 148.926 40.5469C148.443 40.5469 148.066 40.696 147.798 40.9943C147.529 41.2893 147.395 41.6688 147.395 42.1328V47H145.914V41.924C145.914 41.5097 145.784 41.1766 145.526 40.9247C145.267 40.6728 144.931 40.5469 144.517 40.5469C144.235 40.5469 143.975 40.6214 143.736 40.7706C143.501 40.9164 143.31 41.1203 143.164 41.3821C143.022 41.6439 142.951 41.9472 142.951 42.2919V47H141.464ZM157.128 47.1541C156.376 47.1541 155.728 46.9934 155.184 46.6719C154.644 46.3471 154.227 45.8913 153.932 45.3047C153.64 44.7147 153.494 44.0237 153.494 43.2315C153.494 42.4493 153.64 41.7599 153.932 41.1634C154.227 40.5668 154.638 40.1011 155.165 39.7663C155.695 39.4316 156.315 39.2642 157.024 39.2642C157.455 39.2642 157.872 39.3355 158.277 39.478C158.681 39.6205 159.044 39.8442 159.366 40.1491C159.687 40.4541 159.941 40.8501 160.126 41.3374C160.312 41.8213 160.405 42.4096 160.405 43.1023V43.6293H154.334V42.5156H158.948C158.948 42.1245 158.868 41.7782 158.709 41.4766C158.55 41.1716 158.327 40.9313 158.038 40.7557C157.753 40.58 157.418 40.4922 157.034 40.4922C156.616 40.4922 156.252 40.5949 155.94 40.8004C155.632 41.0026 155.393 41.2678 155.224 41.5959C155.059 41.9207 154.976 42.2737 154.976 42.6548V43.5249C154.976 44.0353 155.065 44.4695 155.244 44.8274C155.426 45.1854 155.68 45.4588 156.005 45.6477C156.33 45.8333 156.709 45.9261 157.143 45.9261C157.425 45.9261 157.682 45.8864 157.914 45.8068C158.146 45.724 158.346 45.6013 158.515 45.4389C158.684 45.2765 158.814 45.076 158.903 44.8374L160.31 45.0909C160.198 45.5052 159.995 45.8681 159.704 46.1797C159.415 46.4879 159.052 46.7282 158.615 46.9006C158.181 47.0696 157.685 47.1541 157.128 47.1541Z" fill="#101828" style="fill:#101828;fill:color(display-p3 0.0626 0.0926 0.1570);fill-opacity:1;"/>
<line x1="56.5" y1="62.5" x2="447.5" y2="62.5" stroke="#F2F4F7" style="stroke:#F2F4F7;stroke:color(display-p3 0.9498 0.9558 0.9679);stroke-opacity:1;" stroke-linecap="round"/>
<line x1="56.5" y1="97" x2="447.5" y2="97" stroke="#F2F4F7" style="stroke:#F2F4F7;stroke:color(display-p3 0.9498 0.9558 0.9679);stroke-opacity:1;" stroke-linecap="round"/>
<line x1="56.5" y1="129" x2="447.5" y2="129" stroke="#F2F4F7" style="stroke:#F2F4F7;stroke:color(display-p3 0.9498 0.9558 0.9679);stroke-opacity:1;" stroke-linecap="round"/>
<line x1="56.5" y1="161" x2="447.5" y2="161" stroke="#F2F4F7" style="stroke:#F2F4F7;stroke:color(display-p3 0.9498 0.9558 0.9679);stroke-opacity:1;" stroke-linecap="round"/>
<line x1="56.5" y1="193" x2="447.5" y2="193" stroke="#F2F4F7" style="stroke:#F2F4F7;stroke:color(display-p3 0.9498 0.9558 0.9679);stroke-opacity:1;" stroke-linecap="round"/>
<line x1="56.5" y1="225" x2="447.5" y2="225" stroke="#F2F4F7" style="stroke:#F2F4F7;stroke:color(display-p3 0.9498 0.9558 0.9679);stroke-opacity:1;" stroke-linecap="round"/>
<path d="M69.1009 238.273H70.1577V244.511C70.1577 245.068 70.0554 245.541 69.8509 245.93C69.6463 246.32 69.358 246.615 68.9858 246.817C68.6136 247.018 68.1747 247.119 67.669 247.119C67.1918 247.119 66.767 247.033 66.3949 246.859C66.0227 246.683 65.7301 246.433 65.517 246.109C65.304 245.786 65.1974 245.401 65.1974 244.955H66.2372C66.2372 245.202 66.2983 245.418 66.4205 245.602C66.5455 245.784 66.7159 245.926 66.9318 246.028C67.1477 246.131 67.3935 246.182 67.669 246.182C67.973 246.182 68.2315 246.118 68.4446 245.99C68.6577 245.862 68.8196 245.675 68.9304 245.428C69.044 245.178 69.1009 244.872 69.1009 244.511V238.273ZM74.0653 247.153C73.6506 247.153 73.2741 247.075 72.9361 246.919C72.598 246.76 72.3295 246.531 72.1307 246.233C71.9318 245.932 71.8324 245.568 71.8324 245.142C71.8324 244.767 71.9063 244.463 72.054 244.23C72.2017 243.994 72.3991 243.81 72.6463 243.676C72.8935 243.543 73.1662 243.443 73.4645 243.378C73.7656 243.31 74.0682 243.256 74.3722 243.216C74.7699 243.165 75.0923 243.126 75.3395 243.101C75.5895 243.072 75.7713 243.026 75.8849 242.96C76.0014 242.895 76.0597 242.781 76.0597 242.619V242.585C76.0597 242.165 75.9446 241.838 75.7145 241.605C75.4872 241.372 75.142 241.256 74.679 241.256C74.1989 241.256 73.8224 241.361 73.5497 241.571C73.277 241.781 73.0852 242.006 72.9744 242.244L72.0199 241.903C72.1903 241.506 72.4176 241.196 72.7017 240.974C72.9886 240.75 73.3011 240.594 73.6392 240.506C73.9801 240.415 74.3153 240.369 74.6449 240.369C74.8551 240.369 75.0966 240.395 75.3693 240.446C75.6449 240.494 75.9105 240.595 76.1662 240.749C76.4247 240.902 76.6392 241.134 76.8097 241.443C76.9801 241.753 77.0653 242.168 77.0653 242.688V247H76.0597V246.114H76.0085C75.9403 246.256 75.8267 246.408 75.6676 246.57C75.5085 246.732 75.2969 246.869 75.0327 246.983C74.7685 247.097 74.446 247.153 74.0653 247.153ZM74.2188 246.25C74.6165 246.25 74.9517 246.172 75.2244 246.016C75.5 245.859 75.7074 245.658 75.8466 245.411C75.9886 245.163 76.0597 244.903 76.0597 244.631V243.71C76.017 243.761 75.9233 243.808 75.7784 243.851C75.6364 243.891 75.4716 243.926 75.2841 243.957C75.0994 243.986 74.919 244.011 74.7429 244.034C74.5696 244.054 74.429 244.071 74.321 244.085C74.0597 244.119 73.8153 244.175 73.5881 244.251C73.3636 244.325 73.1818 244.437 73.0426 244.588C72.9063 244.736 72.8381 244.937 72.8381 245.193C72.8381 245.543 72.9673 245.807 73.2259 245.986C73.4872 246.162 73.8182 246.25 74.2188 246.25ZM79.9066 243.062V247H78.9009V240.455H79.8725V241.477H79.9577C80.1112 241.145 80.3441 240.878 80.6566 240.676C80.9691 240.472 81.3725 240.369 81.8668 240.369C82.31 240.369 82.6978 240.46 83.0302 240.642C83.3626 240.821 83.6211 241.094 83.8058 241.46C83.9904 241.824 84.0827 242.284 84.0827 242.841V247H83.0771V242.909C83.0771 242.395 82.9435 241.994 82.6765 241.707C82.4094 241.418 82.043 241.273 81.5771 241.273C81.256 241.273 80.9691 241.342 80.7163 241.482C80.4663 241.621 80.2688 241.824 80.1239 242.091C79.979 242.358 79.9066 242.682 79.9066 243.062Z" fill="#475467" style="fill:#475467;fill:color(display-p3 0.2798 0.3309 0.4026);fill-opacity:1;"/>
<path d="M123.488 238.273H124.749L127.715 245.517H127.817L130.783 238.273H132.045V247H131.056V240.369H130.971L128.243 247H127.289L124.562 240.369H124.476V247H123.488V238.273ZM135.953 247.153C135.539 247.153 135.162 247.075 134.824 246.919C134.486 246.76 134.217 246.531 134.019 246.233C133.82 245.932 133.72 245.568 133.72 245.142C133.72 244.767 133.794 244.463 133.942 244.23C134.09 243.994 134.287 243.81 134.534 243.676C134.781 243.543 135.054 243.443 135.352 243.378C135.654 243.31 135.956 243.256 136.26 243.216C136.658 243.165 136.98 243.126 137.227 243.101C137.477 243.072 137.659 243.026 137.773 242.96C137.889 242.895 137.948 242.781 137.948 242.619V242.585C137.948 242.165 137.833 241.838 137.602 241.605C137.375 241.372 137.03 241.256 136.567 241.256C136.087 241.256 135.71 241.361 135.438 241.571C135.165 241.781 134.973 242.006 134.862 242.244L133.908 241.903C134.078 241.506 134.306 241.196 134.59 240.974C134.877 240.75 135.189 240.594 135.527 240.506C135.868 240.415 136.203 240.369 136.533 240.369C136.743 240.369 136.985 240.395 137.257 240.446C137.533 240.494 137.798 240.595 138.054 240.749C138.313 240.902 138.527 241.134 138.698 241.443C138.868 241.753 138.953 242.168 138.953 242.688V247H137.948V246.114H137.896C137.828 246.256 137.715 246.408 137.556 246.57C137.396 246.732 137.185 246.869 136.921 246.983C136.656 247.097 136.334 247.153 135.953 247.153ZM136.107 246.25C136.504 246.25 136.84 246.172 137.112 246.016C137.388 245.859 137.595 245.658 137.735 245.411C137.877 245.163 137.948 244.903 137.948 244.631V243.71C137.905 243.761 137.811 243.808 137.666 243.851C137.524 243.891 137.36 243.926 137.172 243.957C136.987 243.986 136.807 244.011 136.631 244.034C136.458 244.054 136.317 244.071 136.209 244.085C135.948 244.119 135.703 244.175 135.476 244.251C135.252 244.325 135.07 244.437 134.931 244.588C134.794 244.736 134.726 244.937 134.726 245.193C134.726 245.543 134.855 245.807 135.114 245.986C135.375 246.162 135.706 246.25 136.107 246.25ZM140.789 247V240.455H141.76V241.443H141.829C141.948 241.119 142.164 240.857 142.476 240.655C142.789 240.453 143.141 240.352 143.533 240.352C143.607 240.352 143.699 240.354 143.81 240.357C143.921 240.359 144.005 240.364 144.062 240.369V241.392C144.027 241.384 143.949 241.371 143.827 241.354C143.708 241.334 143.581 241.324 143.448 241.324C143.13 241.324 142.846 241.391 142.596 241.524C142.349 241.655 142.152 241.837 142.008 242.07C141.866 242.3 141.795 242.562 141.795 242.858V247H140.789Z" fill="#475467" style="fill:#475467;fill:color(display-p3 0.2798 0.3309 0.4026);fill-opacity:1;"/>
<path d="M182.841 238.273H184.102L187.068 245.517H187.17L190.136 238.273H191.398V247H190.409V240.369H190.324L187.596 247H186.642L183.915 240.369H183.829V247H182.841V238.273ZM195.306 247.153C194.892 247.153 194.515 247.075 194.177 246.919C193.839 246.76 193.571 246.531 193.372 246.233C193.173 245.932 193.073 245.568 193.073 245.142C193.073 244.767 193.147 244.463 193.295 244.23C193.443 243.994 193.64 243.81 193.887 243.676C194.134 243.543 194.407 243.443 194.705 243.378C195.007 243.31 195.309 243.256 195.613 243.216C196.011 243.165 196.333 243.126 196.58 243.101C196.83 243.072 197.012 243.026 197.126 242.96C197.242 242.895 197.301 242.781 197.301 242.619V242.585C197.301 242.165 197.186 241.838 196.955 241.605C196.728 241.372 196.383 241.256 195.92 241.256C195.44 241.256 195.063 241.361 194.791 241.571C194.518 241.781 194.326 242.006 194.215 242.244L193.261 241.903C193.431 241.506 193.659 241.196 193.943 240.974C194.23 240.75 194.542 240.594 194.88 240.506C195.221 240.415 195.556 240.369 195.886 240.369C196.096 240.369 196.338 240.395 196.61 240.446C196.886 240.494 197.151 240.595 197.407 240.749C197.666 240.902 197.88 241.134 198.051 241.443C198.221 241.753 198.306 242.168 198.306 242.688V247H197.301V246.114H197.249C197.181 246.256 197.068 246.408 196.909 246.57C196.749 246.732 196.538 246.869 196.274 246.983C196.009 247.097 195.687 247.153 195.306 247.153ZM195.46 246.25C195.857 246.25 196.193 246.172 196.465 246.016C196.741 245.859 196.948 245.658 197.088 245.411C197.23 245.163 197.301 244.903 197.301 244.631V243.71C197.258 243.761 197.164 243.808 197.019 243.851C196.877 243.891 196.713 243.926 196.525 243.957C196.34 243.986 196.16 244.011 195.984 244.034C195.811 244.054 195.67 244.071 195.562 244.085C195.301 244.119 195.056 244.175 194.829 244.251C194.605 244.325 194.423 244.437 194.284 244.588C194.147 244.736 194.079 244.937 194.079 245.193C194.079 245.543 194.208 245.807 194.467 245.986C194.728 246.162 195.059 246.25 195.46 246.25ZM200.555 249.455C200.385 249.455 200.233 249.44 200.099 249.412C199.966 249.386 199.873 249.361 199.822 249.335L200.078 248.449C200.322 248.511 200.538 248.534 200.726 248.517C200.913 248.5 201.079 248.416 201.224 248.266C201.372 248.118 201.507 247.878 201.629 247.545L201.817 247.034L199.396 240.455H200.487L202.294 245.67H202.362L204.169 240.455H205.26L202.481 247.955C202.356 248.293 202.202 248.572 202.017 248.794C201.832 249.018 201.618 249.185 201.373 249.293C201.132 249.401 200.859 249.455 200.555 249.455Z" fill="#475467" style="fill:#475467;fill:color(display-p3 0.2798 0.3309 0.4026);fill-opacity:1;"/>
<path d="M248.062 238.273H249.119V244.511C249.119 245.068 249.016 245.541 248.812 245.93C248.607 246.32 248.319 246.615 247.947 246.817C247.575 247.018 247.136 247.119 246.63 247.119C246.153 247.119 245.728 247.033 245.356 246.859C244.984 246.683 244.691 246.433 244.478 246.109C244.265 245.786 244.158 245.401 244.158 244.955H245.198C245.198 245.202 245.259 245.418 245.381 245.602C245.506 245.784 245.677 245.926 245.893 246.028C246.109 246.131 246.354 246.182 246.63 246.182C246.934 246.182 247.192 246.118 247.406 245.99C247.619 245.862 247.781 245.675 247.891 245.428C248.005 245.178 248.062 244.872 248.062 244.511V238.273ZM255.225 244.324V240.455H256.231V247H255.225V245.892H255.157C255.004 246.224 254.765 246.507 254.441 246.74C254.117 246.97 253.708 247.085 253.214 247.085C252.805 247.085 252.441 246.996 252.123 246.817C251.805 246.635 251.555 246.362 251.373 245.999C251.191 245.632 251.1 245.17 251.1 244.614V240.455H252.106V244.545C252.106 245.023 252.239 245.403 252.506 245.688C252.776 245.972 253.12 246.114 253.538 246.114C253.788 246.114 254.042 246.05 254.3 245.922C254.562 245.794 254.781 245.598 254.957 245.334C255.136 245.07 255.225 244.733 255.225 244.324ZM259.078 238.273V247H258.073V238.273H259.078Z" fill="#475467" style="fill:#475467;fill:color(display-p3 0.2798 0.3309 0.4026);fill-opacity:1;"/>
<path d="M303.214 240.455C303.162 240.023 302.955 239.688 302.591 239.449C302.228 239.21 301.782 239.091 301.253 239.091C300.867 239.091 300.529 239.153 300.239 239.278C299.952 239.403 299.728 239.575 299.566 239.794C299.407 240.013 299.327 240.261 299.327 240.54C299.327 240.773 299.383 240.973 299.493 241.141C299.607 241.305 299.752 241.443 299.928 241.554C300.104 241.662 300.289 241.751 300.482 241.822C300.675 241.891 300.853 241.946 301.015 241.989L301.901 242.227C302.128 242.287 302.381 242.369 302.66 242.474C302.941 242.58 303.209 242.723 303.465 242.905C303.724 243.084 303.937 243.314 304.104 243.595C304.272 243.876 304.356 244.222 304.356 244.631C304.356 245.102 304.232 245.528 303.985 245.909C303.741 246.29 303.383 246.592 302.911 246.817C302.442 247.041 301.873 247.153 301.202 247.153C300.577 247.153 300.036 247.053 299.579 246.851C299.124 246.649 298.766 246.368 298.505 246.007C298.246 245.646 298.1 245.227 298.066 244.75H299.157C299.185 245.08 299.296 245.352 299.489 245.568C299.685 245.781 299.932 245.94 300.231 246.045C300.532 246.148 300.856 246.199 301.202 246.199C301.606 246.199 301.968 246.134 302.289 246.003C302.61 245.869 302.864 245.685 303.052 245.449C303.239 245.21 303.333 244.932 303.333 244.614C303.333 244.324 303.252 244.088 303.09 243.906C302.928 243.724 302.715 243.577 302.451 243.463C302.187 243.349 301.901 243.25 301.594 243.165L300.52 242.858C299.839 242.662 299.299 242.382 298.901 242.018C298.503 241.655 298.304 241.179 298.304 240.591C298.304 240.102 298.437 239.676 298.701 239.312C298.968 238.946 299.326 238.662 299.775 238.46C300.226 238.256 300.731 238.153 301.287 238.153C301.85 238.153 302.35 238.254 302.787 238.456C303.225 238.655 303.572 238.928 303.827 239.274C304.086 239.621 304.222 240.014 304.236 240.455H303.214ZM308.701 247.136C308.07 247.136 307.526 246.997 307.069 246.719C306.615 246.438 306.264 246.045 306.016 245.543C305.772 245.037 305.65 244.449 305.65 243.778C305.65 243.108 305.772 242.517 306.016 242.006C306.264 241.491 306.607 241.091 307.048 240.804C307.491 240.514 308.008 240.369 308.599 240.369C308.94 240.369 309.276 240.426 309.609 240.54C309.941 240.653 310.244 240.838 310.516 241.094C310.789 241.347 311.007 241.682 311.168 242.099C311.33 242.517 311.411 243.031 311.411 243.642V244.068H306.366V243.199H310.389C310.389 242.83 310.315 242.5 310.167 242.21C310.022 241.92 309.815 241.692 309.545 241.524C309.278 241.357 308.963 241.273 308.599 241.273C308.198 241.273 307.852 241.372 307.559 241.571C307.269 241.767 307.046 242.023 306.89 242.338C306.734 242.653 306.656 242.991 306.656 243.352V243.932C306.656 244.426 306.741 244.845 306.911 245.189C307.085 245.53 307.325 245.79 307.632 245.969C307.938 246.145 308.295 246.233 308.701 246.233C308.965 246.233 309.204 246.196 309.417 246.122C309.633 246.045 309.819 245.932 309.975 245.781C310.132 245.628 310.252 245.437 310.338 245.21L311.309 245.483C311.207 245.812 311.035 246.102 310.793 246.352C310.552 246.599 310.254 246.793 309.899 246.932C309.543 247.068 309.144 247.136 308.701 247.136ZM312.941 249.455V240.455H313.913V241.494H314.032C314.106 241.381 314.208 241.236 314.339 241.06C314.472 240.881 314.663 240.722 314.91 240.582C315.16 240.44 315.498 240.369 315.924 240.369C316.475 240.369 316.961 240.507 317.382 240.783C317.802 241.058 318.13 241.449 318.366 241.955C318.602 242.46 318.72 243.057 318.72 243.744C318.72 244.438 318.602 245.038 318.366 245.547C318.13 246.053 317.803 246.445 317.386 246.723C316.968 246.999 316.487 247.136 315.941 247.136C315.521 247.136 315.184 247.067 314.931 246.928C314.678 246.786 314.484 246.625 314.347 246.446C314.211 246.264 314.106 246.114 314.032 245.994H313.947V249.455H312.941ZM313.93 243.727C313.93 244.222 314.002 244.658 314.147 245.036C314.292 245.411 314.504 245.705 314.782 245.918C315.061 246.128 315.401 246.233 315.805 246.233C316.225 246.233 316.576 246.122 316.857 245.901C317.141 245.676 317.355 245.375 317.497 244.997C317.641 244.616 317.714 244.193 317.714 243.727C317.714 243.267 317.643 242.852 317.501 242.483C317.362 242.111 317.15 241.817 316.866 241.601C316.585 241.382 316.231 241.273 315.805 241.273C315.396 241.273 315.052 241.376 314.774 241.584C314.495 241.788 314.285 242.075 314.143 242.445C314.001 242.811 313.93 243.239 313.93 243.727Z" fill="#475467" style="fill:#475467;fill:color(display-p3 0.2798 0.3309 0.4026);fill-opacity:1;"/>
<path d="M365.003 238.273V247H363.981L359.225 240.148H359.14V247H358.083V238.273H359.106L363.878 245.142H363.964V238.273H365.003ZM369.641 247.136C369.05 247.136 368.531 246.996 368.085 246.714C367.642 246.433 367.296 246.04 367.046 245.534C366.798 245.028 366.675 244.437 366.675 243.761C366.675 243.08 366.798 242.484 367.046 241.976C367.296 241.467 367.642 241.072 368.085 240.791C368.531 240.51 369.05 240.369 369.641 240.369C370.232 240.369 370.749 240.51 371.192 240.791C371.638 241.072 371.985 241.467 372.232 241.976C372.482 242.484 372.607 243.08 372.607 243.761C372.607 244.437 372.482 245.028 372.232 245.534C371.985 246.04 371.638 246.433 371.192 246.714C370.749 246.996 370.232 247.136 369.641 247.136ZM369.641 246.233C370.09 246.233 370.459 246.118 370.749 245.888C371.039 245.658 371.253 245.355 371.392 244.98C371.531 244.605 371.601 244.199 371.601 243.761C371.601 243.324 371.531 242.916 371.392 242.538C371.253 242.161 371.039 241.855 370.749 241.622C370.459 241.389 370.09 241.273 369.641 241.273C369.192 241.273 368.823 241.389 368.533 241.622C368.243 241.855 368.029 242.161 367.889 242.538C367.75 242.916 367.681 243.324 367.681 243.761C367.681 244.199 367.75 244.605 367.889 244.98C368.029 245.355 368.243 245.658 368.533 245.888C368.823 246.118 369.192 246.233 369.641 246.233ZM379.26 240.455L376.839 247H375.817L373.396 240.455H374.487L376.294 245.67H376.362L378.169 240.455H379.26Z" fill="#475467" style="fill:#475467;fill:color(display-p3 0.2798 0.3309 0.4026);fill-opacity:1;"/>
<path d="M421.438 247H418.744V238.273H421.557C422.403 238.273 423.128 238.447 423.73 238.797C424.332 239.143 424.794 239.642 425.115 240.293C425.436 240.94 425.597 241.716 425.597 242.619C425.597 243.528 425.435 244.311 425.111 244.967C424.787 245.621 424.315 246.124 423.696 246.476C423.077 246.825 422.324 247 421.438 247ZM419.801 246.062H421.369C422.091 246.062 422.689 245.923 423.163 245.645C423.638 245.366 423.991 244.97 424.224 244.456C424.457 243.942 424.574 243.33 424.574 242.619C424.574 241.915 424.459 241.308 424.229 240.8C423.999 240.288 423.655 239.896 423.197 239.624C422.74 239.348 422.17 239.21 421.489 239.21H419.801V246.062ZM429.977 247.136C429.347 247.136 428.803 246.997 428.345 246.719C427.891 246.438 427.54 246.045 427.293 245.543C427.048 245.037 426.926 244.449 426.926 243.778C426.926 243.108 427.048 242.517 427.293 242.006C427.54 241.491 427.884 241.091 428.324 240.804C428.767 240.514 429.284 240.369 429.875 240.369C430.216 240.369 430.553 240.426 430.885 240.54C431.217 240.653 431.52 240.838 431.793 241.094C432.065 241.347 432.283 241.682 432.445 242.099C432.607 242.517 432.688 243.031 432.688 243.642V244.068H427.642V243.199H431.665C431.665 242.83 431.591 242.5 431.443 242.21C431.298 241.92 431.091 241.692 430.821 241.524C430.554 241.357 430.239 241.273 429.875 241.273C429.474 241.273 429.128 241.372 428.835 241.571C428.545 241.767 428.322 242.023 428.166 242.338C428.01 242.653 427.932 242.991 427.932 243.352V243.932C427.932 244.426 428.017 244.845 428.188 245.189C428.361 245.53 428.601 245.79 428.908 245.969C429.214 246.145 429.571 246.233 429.977 246.233C430.241 246.233 430.48 246.196 430.693 246.122C430.909 246.045 431.095 245.932 431.251 245.781C431.408 245.628 431.528 245.437 431.614 245.21L432.585 245.483C432.483 245.812 432.311 246.102 432.07 246.352C431.828 246.599 431.53 246.793 431.175 246.932C430.82 247.068 430.42 247.136 429.977 247.136ZM436.876 247.136C436.263 247.136 435.734 246.991 435.291 246.702C434.848 246.412 434.507 246.013 434.268 245.504C434.03 244.996 433.911 244.415 433.911 243.761C433.911 243.097 434.033 242.51 434.277 242.001C434.524 241.49 434.868 241.091 435.308 240.804C435.751 240.514 436.268 240.369 436.859 240.369C437.32 240.369 437.734 240.455 438.104 240.625C438.473 240.795 438.776 241.034 439.011 241.341C439.247 241.648 439.393 242.006 439.45 242.415H438.445C438.368 242.116 438.197 241.852 437.933 241.622C437.672 241.389 437.32 241.273 436.876 241.273C436.484 241.273 436.141 241.375 435.845 241.58C435.553 241.781 435.324 242.067 435.159 242.436C434.997 242.803 434.916 243.233 434.916 243.727C434.916 244.233 434.996 244.673 435.155 245.048C435.317 245.423 435.544 245.714 435.837 245.922C436.132 246.129 436.479 246.233 436.876 246.233C437.138 246.233 437.375 246.188 437.588 246.097C437.801 246.006 437.982 245.875 438.129 245.705C438.277 245.534 438.382 245.33 438.445 245.091H439.45C439.393 245.477 439.253 245.825 439.028 246.135C438.807 246.442 438.513 246.686 438.146 246.868C437.783 247.047 437.359 247.136 436.876 247.136Z" fill="#475467" style="fill:#475467;fill:color(display-p3 0.2798 0.3309 0.4026);fill-opacity:1;"/>
<mask id="mask0_7043_9675" style="mask-type:alpha" maskUnits="userSpaceOnUse" x="56" y="98" width="392" height="127">
<rect width="392" height="127" transform="translate(56 98)" fill="url(#paint0_linear_7043_9675)" style=""/>
</mask>
<g mask="url(#mask0_7043_9675)">
<g style="mix-blend-mode:multiply" opacity="0.1">
<path d="M64.8839 125.696L56 128.589V225H448V93.448L439.671 98.2526H430.788L426.623 102.752H421.071C419.59 103.501 416.518 105.001 416.074 105.001C415.629 105.001 412.742 105.901 411.354 106.351L399.416 107.7L392.476 109.5L381.371 107.7L375.541 106.351L367.212 109.5H358.606L351.388 106.351C348.612 105.901 342.948 105.001 342.504 105.001C342.06 105.001 338.432 104.101 336.674 103.651H332.232L321.683 105.001L312.521 106.351L308.357 109.5L295.864 110.849L289.479 112.199L282.261 114.449L275.32 119.847H272.266L263.938 118.498L255.887 114.449L248.946 112.199H244.782L237.564 110.849L227.292 112.199H217.575L207.858 114.449L198.142 117.148L190.924 119.847L183.15 121.197L172.601 119.847L164.272 121.197L155.943 122.547L148.17 121.197L137.62 124.346L128.737 122.547L119.853 124.346H111.246L102.085 125.696H92.6459L83.2068 127.045L74.0453 124.346L64.8839 125.696Z" fill="#2034E8" style="fill:#2034E8;fill:color(display-p3 0.1255 0.2039 0.9098);fill-opacity:1;"/>
</g>
</g>
<path d="M56 128.589L64.8839 125.696L74.0453 124.346L83.2068 127.045L92.6459 125.696H102.085L111.246 124.346H119.853L128.737 122.547L137.62 124.346L148.17 121.197L155.943 122.547L164.272 121.197L172.601 119.847L183.15 121.197L190.924 119.847L198.142 117.148L207.858 114.449L217.575 112.199H227.292L237.564 110.849L244.782 112.199H248.946L255.887 114.449L263.938 118.498L272.266 119.847H275.32L282.261 114.449L289.479 112.199L295.864 110.849L308.357 109.5L312.521 106.351L321.683 105.001L332.232 103.651H336.674C338.432 104.101 342.06 105.001 342.504 105.001C342.948 105.001 348.612 105.901 351.388 106.351L358.606 109.5H367.212L375.541 106.351L381.371 107.7L392.476 109.5L399.416 107.7L411.354 106.351C412.742 105.901 415.629 105.001 416.074 105.001C416.518 105.001 419.59 103.501 421.071 102.752H426.623L430.788 98.2526H439.671L448 93.448" stroke="#2034E8" style="stroke:#2034E8;stroke:color(display-p3 0.1255 0.2039 0.9098);stroke-opacity:1;" stroke-width="2" stroke-linecap="round" stroke-linejoin="round"/>
<path d="M56 163.587L64.8839 161.744L74.0453 160.885L83.2068 162.604L92.6459 161.744H102.085L111.246 160.885H119.853L128.737 159.738L137.62 160.885L148.17 158.879L155.943 159.738L164.272 158.879L172.601 158.019L183.15 158.879L190.924 158.019L198.142 156.3L207.858 154.58L217.575 153.147H227.292L237.564 152.288L244.782 153.147H248.946L255.887 154.58L263.938 157.159L272.266 158.019H275.32L282.261 154.58L289.479 153.147L295.864 152.288L308.357 151.428L312.521 149.422L321.683 148.562L332.232 147.702H336.674C338.432 147.989 342.06 148.562 342.504 148.562C342.948 148.562 348.612 149.135 351.388 149.422L358.606 151.428H367.212L375.541 149.422L381.371 150.282L392.476 151.428L399.416 150.282L411.354 149.422C412.742 149.135 415.629 148.562 416.074 148.562C416.518 148.562 419.59 147.607 421.071 147.129H426.623L430.788 144.264H439.671L448 141.203" stroke="#4F61FF" style="stroke:#4F61FF;stroke:color(display-p3 0.3098 0.3804 1.0000);stroke-opacity:1;" stroke-width="2" stroke-linecap="round" stroke-linejoin="round"/>
<path d="M56 207.88L64.8839 202.984L74.0453 200.7L83.2068 205.268L92.6459 202.984H102.085L111.246 200.7H119.853L128.737 197.655L137.62 200.7L148.17 195.371L155.943 197.655L164.272 195.371L172.601 193.087L183.15 195.371L190.924 193.087L198.142 188.519L207.858 183.951L217.575 180.144H227.292L237.564 177.86L244.782 180.144H248.946L255.887 183.951L263.938 190.803L272.266 193.087H275.32L282.261 183.951L289.479 180.144L295.864 177.86L308.357 175.576L312.521 170.247L321.683 167.963L332.232 165.678H336.674C338.432 166.44 342.06 167.963 342.504 167.963C342.948 167.963 348.612 169.485 351.388 170.247L358.606 175.576H367.212L375.541 170.247L381.371 172.531L392.476 175.576L399.416 172.531L411.354 170.247C412.742 169.485 415.629 167.963 416.074 167.963C416.518 167.963 419.59 165.425 421.071 164.156H426.623L430.788 156.542H439.671L448 148.411" stroke="#0F186B" style="stroke:#0F186B;stroke:color(display-p3 0.0588 0.0941 0.4196);stroke-opacity:1;" stroke-width="2" stroke-linecap="round" stroke-linejoin="round"/>
</g>
<rect x="316" y="120" width="192" height="192" rx="12" fill="white" style="fill:white;fill-opacity:1;"/>
<path d="M412 140C421.98 140 431.863 141.966 441.084 145.785C450.305 149.605 458.683 155.203 465.74 162.26C472.797 169.317 478.395 177.695 482.215 186.916C486.034 196.137 488 206.02 488 216C488 225.98 486.034 235.863 482.215 245.084C478.395 254.305 472.797 262.683 465.74 269.74C458.683 276.797 450.305 282.395 441.084 286.215C431.863 290.034 421.98 292 412 292C402.02 292 392.137 290.034 382.916 286.215C373.695 282.395 365.317 276.797 358.26 269.74C351.203 262.683 345.604 254.305 341.785 245.084C337.966 235.863 336 225.98 336 216C336 206.019 337.966 196.137 341.785 186.916C345.605 177.695 351.203 169.317 358.26 162.26C365.317 155.203 373.695 149.604 382.916 145.785C392.137 141.966 402.02 140 412 140L412 140Z" stroke="#6C7AFF" style="stroke:#6C7AFF;stroke:color(display-p3 0.4235 0.4784 1.0000);stroke-opacity:1;" stroke-width="8" stroke-linecap="round" stroke-linejoin="round"/>
<path d="M412 140C429.395 140 446.264 145.967 459.79 156.906C473.315 167.844 482.679 183.091 486.318 200.101C489.957 217.111 487.651 234.855 479.784 250.37C471.918 265.885 458.967 278.231 443.094 285.348C427.221 292.465 409.388 293.922 392.571 289.475C375.754 285.027 360.971 274.946 350.691 260.913C340.411 246.881 335.256 229.746 336.087 212.371C336.917 194.996 343.683 178.431 355.255 165.443" stroke="#0F186B" style="stroke:#0F186B;stroke:color(display-p3 0.0588 0.0941 0.4196);stroke-opacity:1;" stroke-width="8" stroke-linecap="round" stroke-linejoin="round"/>
<path d="M412 152C420.405 152 428.727 153.655 436.492 156.872C444.257 160.088 451.312 164.802 457.255 170.745C463.198 176.688 467.912 183.743 471.128 191.508C474.345 199.273 476 207.595 476 216C476 224.405 474.345 232.727 471.128 240.492C467.912 248.257 463.198 255.312 457.255 261.255C451.312 267.198 444.257 271.912 436.492 275.128C428.727 278.345 420.405 280 412 280C403.595 280 395.273 278.345 387.508 275.128C379.743 271.912 372.688 267.198 366.745 261.255C360.802 255.312 356.088 248.257 352.872 240.492C349.655 232.727 348 224.405 348 216C348 207.595 349.655 199.273 352.872 191.508C356.088 183.743 360.802 176.688 366.745 170.745C372.688 164.802 379.743 160.088 387.508 156.872C395.273 153.655 403.595 152 412 152L412 152Z" stroke="#6C7AFF" style="stroke:#6C7AFF;stroke:color(display-p3 0.4235 0.4784 1.0000);stroke-opacity:1;" stroke-width="8" stroke-linecap="round" stroke-linejoin="round"/>
<path d="M412 152C425.072 152 437.831 156.003 448.561 163.471C459.29 170.938 467.475 181.513 472.016 193.771C476.556 206.03 477.234 219.384 473.957 232.04C470.681 244.695 463.608 256.043 453.69 264.559C443.772 273.074 431.484 278.348 418.478 279.671C405.473 280.995 392.375 278.304 380.945 271.96C369.514 265.617 360.301 255.926 354.543 244.19C348.785 232.454 346.759 219.236 348.737 206.314" stroke="#2034E8" style="stroke:#2034E8;stroke:color(display-p3 0.1255 0.2039 0.9098);stroke-opacity:1;" stroke-width="8" stroke-linecap="round" stroke-linejoin="round"/>
<path d="M412 164C418.829 164 425.591 165.345 431.9 167.958C438.208 170.572 443.941 174.402 448.77 179.23C453.598 184.059 457.428 189.792 460.042 196.1C462.655 202.409 464 209.171 464 216C464 222.829 462.655 229.591 460.042 235.9C457.428 242.208 453.598 247.941 448.77 252.77C443.941 257.598 438.208 261.428 431.9 264.042C425.591 266.655 418.829 268 412 268C405.171 268 398.409 266.655 392.1 264.042C385.792 261.428 380.059 257.598 375.23 252.77C370.402 247.941 366.571 242.208 363.958 235.9C361.345 229.591 360 222.829 360 216C360 209.171 361.345 202.409 363.958 196.1C366.572 189.792 370.402 184.059 375.23 179.23C380.059 174.402 385.792 170.571 392.1 167.958C398.409 165.345 405.171 164 412 164L412 164Z" stroke="#6C7AFF" style="stroke:#6C7AFF;stroke:color(display-p3 0.4235 0.4784 1.0000);stroke-opacity:1;" stroke-width="8" stroke-linecap="round" stroke-linejoin="round"/>
<path d="M412 164C421.047 164 429.937 166.36 437.792 170.847C445.647 175.334 452.196 181.793 456.791 189.585C461.387 197.378 463.87 206.234 463.995 215.28C464.12 224.326 461.883 233.248 457.506 241.164C453.128 249.081 446.76 255.719 439.032 260.421C431.304 265.124 422.483 267.73 413.44 267.98C404.397 268.231 395.445 266.117 387.468 261.85C379.491 257.582 372.766 251.307 367.957 243.644" stroke="#4F61FF" style="stroke:#4F61FF;stroke:color(display-p3 0.3098 0.3804 1.0000);stroke-opacity:1;" stroke-width="8" stroke-linecap="round" stroke-linejoin="round"/>
<path d="M377.694 205H376.296L379.437 196.273H380.958L384.099 205H382.701L380.234 197.858H380.166L377.694 205ZM377.928 201.582H382.463V202.69H377.928V201.582ZM387.909 205.132C387.275 205.132 386.73 204.989 386.272 204.702C385.818 204.412 385.468 204.013 385.224 203.504C384.98 202.996 384.857 202.413 384.857 201.757C384.857 201.092 384.982 200.506 385.232 199.997C385.482 199.486 385.835 199.087 386.289 198.8C386.744 198.513 387.279 198.369 387.896 198.369C388.393 198.369 388.836 198.462 389.225 198.646C389.615 198.828 389.928 199.084 390.167 199.413C390.409 199.743 390.552 200.128 390.597 200.568H389.357C389.289 200.261 389.133 199.997 388.889 199.776C388.647 199.554 388.323 199.443 387.917 199.443C387.562 199.443 387.251 199.537 386.984 199.724C386.72 199.909 386.514 200.173 386.366 200.517C386.218 200.858 386.144 201.261 386.144 201.727C386.144 202.205 386.217 202.616 386.362 202.963C386.507 203.31 386.711 203.578 386.975 203.768C387.242 203.959 387.556 204.054 387.917 204.054C388.159 204.054 388.377 204.01 388.573 203.922C388.772 203.831 388.938 203.702 389.072 203.534C389.208 203.366 389.303 203.165 389.357 202.929H390.597C390.552 203.352 390.414 203.73 390.184 204.062C389.954 204.395 389.646 204.656 389.259 204.847C388.876 205.037 388.426 205.132 387.909 205.132ZM395.015 198.455V199.477H391.44V198.455H395.015ZM392.399 196.886H393.673V203.078C393.673 203.325 393.71 203.511 393.784 203.636C393.858 203.759 393.953 203.842 394.069 203.888C394.189 203.93 394.318 203.952 394.457 203.952C394.559 203.952 394.649 203.945 394.726 203.93C394.802 203.916 394.862 203.905 394.905 203.896L395.135 204.949C395.061 204.977 394.956 205.006 394.819 205.034C394.683 205.065 394.513 205.082 394.308 205.085C393.973 205.091 393.66 205.031 393.371 204.906C393.081 204.781 392.846 204.588 392.667 204.327C392.488 204.065 392.399 203.737 392.399 203.342V196.886ZM396.425 205V198.455H397.699V205H396.425ZM397.068 197.445C396.847 197.445 396.656 197.371 396.497 197.223C396.341 197.072 396.263 196.893 396.263 196.686C396.263 196.476 396.341 196.297 396.497 196.149C396.656 195.999 396.847 195.923 397.068 195.923C397.29 195.923 397.479 195.999 397.635 196.149C397.794 196.297 397.874 196.476 397.874 196.686C397.874 196.893 397.794 197.072 397.635 197.223C397.479 197.371 397.29 197.445 397.068 197.445ZM405.013 198.455L402.639 205H401.275L398.898 198.455H400.265L401.923 203.491H401.991L403.645 198.455H405.013ZM408.808 205.132C408.164 205.132 407.608 204.994 407.142 204.719C406.679 204.44 406.321 204.05 406.068 203.547C405.818 203.041 405.693 202.449 405.693 201.77C405.693 201.099 405.818 200.509 406.068 199.997C406.321 199.486 406.673 199.087 407.125 198.8C407.58 198.513 408.111 198.369 408.719 198.369C409.088 198.369 409.446 198.43 409.793 198.553C410.139 198.675 410.45 198.866 410.726 199.128C411.002 199.389 411.219 199.729 411.378 200.146C411.537 200.561 411.617 201.065 411.617 201.659V202.111H406.414V201.156H410.368C410.368 200.821 410.3 200.524 410.164 200.266C410.027 200.004 409.835 199.798 409.588 199.648C409.344 199.497 409.057 199.422 408.727 199.422C408.369 199.422 408.057 199.51 407.79 199.686C407.526 199.859 407.321 200.087 407.176 200.368C407.034 200.646 406.963 200.949 406.963 201.276V202.021C406.963 202.459 407.04 202.831 407.193 203.138C407.35 203.445 407.567 203.679 407.845 203.841C408.124 204 408.449 204.08 408.821 204.08C409.063 204.08 409.283 204.045 409.482 203.977C409.681 203.906 409.852 203.801 409.997 203.662C410.142 203.523 410.253 203.351 410.33 203.146L411.536 203.364C411.439 203.719 411.266 204.03 411.016 204.297C410.769 204.561 410.458 204.767 410.083 204.915C409.71 205.06 409.286 205.132 408.808 205.132ZM420.352 202.286V198.455H421.631V205H420.378V203.866H420.31C420.159 204.216 419.918 204.507 419.585 204.74C419.256 204.97 418.845 205.085 418.354 205.085C417.933 205.085 417.561 204.993 417.237 204.808C416.916 204.621 416.664 204.344 416.479 203.977C416.297 203.611 416.206 203.158 416.206 202.618V198.455H417.48V202.464C417.48 202.911 417.604 203.266 417.851 203.53C418.098 203.794 418.419 203.926 418.814 203.926C419.053 203.926 419.29 203.866 419.526 203.747C419.764 203.628 419.962 203.447 420.118 203.206C420.277 202.964 420.355 202.658 420.352 202.286ZM428.248 200.053L427.093 200.257C427.045 200.109 426.968 199.969 426.863 199.835C426.76 199.702 426.621 199.592 426.445 199.507C426.269 199.422 426.049 199.379 425.785 199.379C425.424 199.379 425.123 199.46 424.881 199.622C424.64 199.781 424.519 199.987 424.519 200.24C424.519 200.459 424.6 200.635 424.762 200.768C424.924 200.902 425.185 201.011 425.546 201.097L426.586 201.335C427.188 201.474 427.637 201.689 427.932 201.979C428.228 202.268 428.376 202.645 428.376 203.108C428.376 203.5 428.262 203.849 428.035 204.156C427.81 204.46 427.496 204.699 427.093 204.872C426.692 205.045 426.228 205.132 425.699 205.132C424.966 205.132 424.368 204.976 423.905 204.663C423.442 204.348 423.158 203.901 423.053 203.321L424.285 203.134C424.361 203.455 424.519 203.697 424.758 203.862C424.996 204.024 425.307 204.105 425.691 204.105C426.108 204.105 426.442 204.018 426.692 203.845C426.942 203.669 427.067 203.455 427.067 203.202C427.067 202.997 426.991 202.825 426.837 202.686C426.687 202.547 426.455 202.442 426.143 202.371L425.035 202.128C424.424 201.989 423.972 201.767 423.68 201.463C423.39 201.159 423.245 200.774 423.245 200.308C423.245 199.922 423.353 199.584 423.569 199.294C423.785 199.004 424.083 198.778 424.464 198.616C424.844 198.452 425.28 198.369 425.772 198.369C426.479 198.369 427.036 198.523 427.442 198.83C427.849 199.134 428.117 199.541 428.248 200.053ZM432.597 205.132C431.953 205.132 431.397 204.994 430.931 204.719C430.468 204.44 430.11 204.05 429.857 203.547C429.607 203.041 429.482 202.449 429.482 201.77C429.482 201.099 429.607 200.509 429.857 199.997C430.11 199.486 430.463 199.087 430.914 198.8C431.369 198.513 431.9 198.369 432.508 198.369C432.877 198.369 433.235 198.43 433.582 198.553C433.928 198.675 434.24 198.866 434.515 199.128C434.791 199.389 435.008 199.729 435.167 200.146C435.326 200.561 435.406 201.065 435.406 201.659V202.111H430.203V201.156H434.157C434.157 200.821 434.089 200.524 433.953 200.266C433.816 200.004 433.624 199.798 433.377 199.648C433.133 199.497 432.846 199.422 432.517 199.422C432.159 199.422 431.846 199.51 431.579 199.686C431.315 199.859 431.11 200.087 430.965 200.368C430.823 200.646 430.752 200.949 430.752 201.276V202.021C430.752 202.459 430.829 202.831 430.982 203.138C431.139 203.445 431.356 203.679 431.634 203.841C431.913 204 432.238 204.08 432.61 204.08C432.852 204.08 433.072 204.045 433.271 203.977C433.47 203.906 433.642 203.801 433.786 203.662C433.931 203.523 434.042 203.351 434.119 203.146L435.325 203.364C435.228 203.719 435.055 204.03 434.805 204.297C434.558 204.561 434.247 204.767 433.872 204.915C433.499 205.06 433.075 205.132 432.597 205.132ZM436.819 205V198.455H438.051V199.494H438.119C438.238 199.142 438.449 198.865 438.75 198.663C439.054 198.459 439.398 198.357 439.781 198.357C439.861 198.357 439.954 198.359 440.062 198.365C440.173 198.371 440.26 198.378 440.322 198.386V199.605C440.271 199.591 440.18 199.575 440.05 199.558C439.919 199.538 439.788 199.528 439.657 199.528C439.356 199.528 439.088 199.592 438.852 199.72C438.619 199.845 438.434 200.02 438.298 200.244C438.162 200.466 438.094 200.719 438.094 201.003V205H436.819ZM446.33 200.053L445.175 200.257C445.127 200.109 445.05 199.969 444.945 199.835C444.843 199.702 444.703 199.592 444.527 199.507C444.351 199.422 444.131 199.379 443.867 199.379C443.506 199.379 443.205 199.46 442.963 199.622C442.722 199.781 442.601 199.987 442.601 200.24C442.601 200.459 442.682 200.635 442.844 200.768C443.006 200.902 443.267 201.011 443.628 201.097L444.668 201.335C445.27 201.474 445.719 201.689 446.014 201.979C446.31 202.268 446.458 202.645 446.458 203.108C446.458 203.5 446.344 203.849 446.117 204.156C445.892 204.46 445.578 204.699 445.175 204.872C444.774 205.045 444.31 205.132 443.781 205.132C443.048 205.132 442.45 204.976 441.987 204.663C441.524 204.348 441.24 203.901 441.135 203.321L442.367 203.134C442.443 203.455 442.601 203.697 442.84 203.862C443.078 204.024 443.389 204.105 443.773 204.105C444.191 204.105 444.524 204.018 444.774 203.845C445.024 203.669 445.149 203.455 445.149 203.202C445.149 202.997 445.073 202.825 444.919 202.686C444.769 202.547 444.537 202.442 444.225 202.371L443.117 202.128C442.506 201.989 442.054 201.767 441.762 201.463C441.472 201.159 441.327 200.774 441.327 200.308C441.327 199.922 441.435 199.584 441.651 199.294C441.867 199.004 442.165 198.778 442.546 198.616C442.926 198.452 443.362 198.369 443.854 198.369C444.561 198.369 445.118 198.523 445.524 198.83C445.931 199.134 446.199 199.541 446.33 200.053Z" fill="#475467" style="fill:#475467;fill:color(display-p3 0.2798 0.3309 0.4026);fill-opacity:1;"/>
<path d="M392.629 216.455V231H389.994V219.018H389.909L386.507 221.192V218.777L390.122 216.455H392.629ZM398.568 229.011L398.476 229.793C398.409 230.389 398.291 230.995 398.121 231.611C397.955 232.231 397.78 232.802 397.595 233.322C397.41 233.843 397.261 234.253 397.148 234.551H395.415C395.481 234.262 395.571 233.869 395.684 233.372C395.803 232.875 395.916 232.316 396.025 231.696C396.134 231.076 396.208 230.446 396.246 229.807L396.295 229.011H398.568ZM406.23 231.277C405.06 231.277 404.056 230.981 403.218 230.389C402.385 229.793 401.743 228.933 401.294 227.811C400.848 226.684 400.626 225.328 400.626 223.741C400.631 222.155 400.856 220.806 401.301 219.693C401.75 218.576 402.392 217.723 403.225 217.136C404.063 216.549 405.065 216.256 406.23 216.256C407.394 216.256 408.396 216.549 409.234 217.136C410.072 217.723 410.713 218.576 411.159 219.693C411.608 220.811 411.833 222.16 411.833 223.741C411.833 225.332 411.608 226.691 411.159 227.818C410.713 228.94 410.072 229.797 409.234 230.389C408.401 230.981 407.399 231.277 406.23 231.277ZM406.23 229.054C407.139 229.054 407.856 228.607 408.382 227.712C408.912 226.812 409.177 225.489 409.177 223.741C409.177 222.586 409.056 221.616 408.815 220.83C408.573 220.044 408.232 219.452 407.792 219.054C407.352 218.652 406.831 218.45 406.23 218.45C405.325 218.45 404.61 218.9 404.085 219.8C403.559 220.695 403.294 222.009 403.289 223.741C403.285 224.902 403.401 225.877 403.637 226.668C403.879 227.458 404.22 228.055 404.66 228.457C405.1 228.855 405.624 229.054 406.23 229.054ZM419.569 231.277C418.4 231.277 417.396 230.981 416.558 230.389C415.725 229.793 415.083 228.933 414.633 227.811C414.188 226.684 413.966 225.328 413.966 223.741C413.97 222.155 414.195 220.806 414.64 219.693C415.09 218.576 415.732 217.723 416.565 217.136C417.403 216.549 418.405 216.256 419.569 216.256C420.734 216.256 421.736 216.549 422.574 217.136C423.412 217.723 424.053 218.576 424.498 219.693C424.948 220.811 425.173 222.16 425.173 223.741C425.173 225.332 424.948 226.691 424.498 227.818C424.053 228.94 423.412 229.797 422.574 230.389C421.74 230.981 420.739 231.277 419.569 231.277ZM419.569 229.054C420.479 229.054 421.196 228.607 421.721 227.712C422.252 226.812 422.517 225.489 422.517 223.741C422.517 222.586 422.396 221.616 422.155 220.83C421.913 220.044 421.572 219.452 421.132 219.054C420.692 218.652 420.171 218.45 419.569 218.45C418.665 218.45 417.95 218.9 417.425 219.8C416.899 220.695 416.634 222.009 416.629 223.741C416.624 224.902 416.74 225.877 416.977 226.668C417.219 227.458 417.559 228.055 418 228.457C418.44 228.855 418.963 229.054 419.569 229.054ZM432.909 231.277C431.74 231.277 430.736 230.981 429.898 230.389C429.065 229.793 428.423 228.933 427.973 227.811C427.528 226.684 427.306 225.328 427.306 223.741C427.31 222.155 427.535 220.806 427.98 219.693C428.43 218.576 429.072 217.723 429.905 217.136C430.743 216.549 431.744 216.256 432.909 216.256C434.074 216.256 435.075 216.549 435.914 217.136C436.752 217.723 437.393 218.576 437.838 219.693C438.288 220.811 438.513 222.16 438.513 223.741C438.513 225.332 438.288 226.691 437.838 227.818C437.393 228.94 436.752 229.797 435.914 230.389C435.08 230.981 434.079 231.277 432.909 231.277ZM432.909 229.054C433.818 229.054 434.536 228.607 435.061 227.712C435.592 226.812 435.857 225.489 435.857 223.741C435.857 222.586 435.736 221.616 435.494 220.83C435.253 220.044 434.912 219.452 434.472 219.054C434.031 218.652 433.511 218.45 432.909 218.45C432.005 218.45 431.29 218.9 430.764 219.8C430.239 220.695 429.974 222.009 429.969 223.741C429.964 224.902 430.08 225.877 430.317 226.668C430.558 227.458 430.899 228.055 431.34 228.457C431.78 228.855 432.303 229.054 432.909 229.054Z" fill="#101828" style="fill:#101828;fill:color(display-p3 0.0626 0.0926 0.1570);fill-opacity:1;"/>
<defs>
<filter id="filter0_d_7043_9675" x="0" y="0" width="504" height="332" filterUnits="userSpaceOnUse" color-interpolation-filters="sRGB">
<feFlood flood-opacity="0" result="BackgroundImageFix"/>
<feColorMatrix in="SourceAlpha" type="matrix" values="0 0 0 0 0 0 0 0 0 0 0 0 0 0 0 0 0 0 127 0" result="hardAlpha"/>
<feMorphology radius="12" operator="erode" in="SourceAlpha" result="effect1_dropShadow_7043_9675"/>
<feOffset dy="24"/>
<feGaussianBlur stdDeviation="24"/>
<feColorMatrix type="matrix" values="0 0 0 0 0.0625882 0 0 0 0 0.0926346 0 0 0 0 0.15702 0 0 0 0.18 0"/>
<feBlend mode="normal" in2="BackgroundImageFix" result="effect1_dropShadow_7043_9675"/>
<feBlend mode="normal" in="SourceGraphic" in2="effect1_dropShadow_7043_9675" result="shape"/>
</filter>
<linearGradient id="paint0_linear_7043_9675" x1="196" y1="0" x2="196" y2="127" gradientUnits="userSpaceOnUse">
<stop style="stop-color:black;stop-opacity:1;"/>
<stop offset="1" stop-opacity="0" style="stop-color:none;stop-opacity:0;"/>
</linearGradient>
</defs>
</svg>
